<svg width="58" height="56" viewBox="0 0 58 56" fill="none" xmlns="http://www.w3.org/2000/svg">
<path d="M55.7344 25.2812V9.42187C55.7344 5.66807 52.6913 2.62499 48.9375 2.62499H9.0625C5.3087 2.62499 2.26562 5.66807 2.26562 9.42187V36.6094C2.26562 40.3632 5.3087 43.4062 9.0625 43.4062C11.6902 43.4062 13.8203 45.5364 13.8203 48.1641V52.0161C13.8203 53.2283 15.2858 53.8353 16.1429 52.9782L22.6215 46.4995C24.6022 44.5189 27.2884 43.4062 30.0894 43.4062H48.9375C52.6913 43.4062 55.7344 40.3632 55.7344 36.6094" stroke="#00c5a7" stroke-width="4.53125" stroke-miterlimit="10" stroke-linecap="round" stroke-linejoin="round"/>
<path d="M44.4062 13.9531H13.5938" stroke="#00c5a7" stroke-width="4.53125" stroke-miterlimit="10" stroke-linecap="round" stroke-linejoin="round"/>
<path d="M44.4062 23.0156H13.5938" stroke="#00c5a7" stroke-width="4.53125" stroke-miterlimit="10" stroke-linecap="round" stroke-linejoin="round"/>
<path d="M35.3438 32.0781H13.5938" stroke="#00c5a7" stroke-width="4.53125" stroke-miterlimit="10" stroke-linecap="round" stroke-linejoin="round"/>
</svg>
