<svg width="56" height="56" viewBox="0 0 56 56" fill="none" xmlns="http://www.w3.org/2000/svg">
<path d="M50.1382 41.637C49.1688 40.9159 47.7985 41.1173 47.0774 42.0864C46.6808 42.6195 46.2564 43.1425 45.816 43.6407C45.0159 44.5457 45.1009 45.9282 46.006 46.7284C46.4223 47.0964 46.939 47.2771 47.454 47.2771C48.0591 47.2771 48.6615 47.0274 49.0937 46.5383C49.6153 45.9484 50.1179 45.3291 50.5876 44.6977C51.3087 43.7285 51.1076 42.358 50.1382 41.637Z" fill="#00c5a7"/>
<path d="M50.1382 41.637C49.1688 40.9159 47.7985 41.1173 47.0774 42.0864C46.6808 42.6195 46.2564 43.1425 45.816 43.6407C45.0159 44.5457 45.1009 45.9282 46.006 46.7284C46.4223 47.0964 46.939 47.2771 47.454 47.2771C48.0591 47.2771 48.6615 47.0274 49.0937 46.5383C49.6153 45.9484 50.1179 45.3291 50.5876 44.6977C51.3087 43.7285 51.1076 42.358 50.1382 41.637Z" fill="white" fill-opacity="0.2"/>
<path d="M53.7965 31.3782C52.6168 31.1213 51.4507 31.8699 51.1938 33.0503C51.0524 33.6997 50.8816 34.3502 50.6857 34.9842C50.329 36.1385 50.9756 37.3633 52.1299 37.72C52.345 37.7864 52.5624 37.818 52.7764 37.818C53.7104 37.818 54.5754 37.2149 54.8657 36.2756C55.0982 35.5233 55.301 34.7512 55.4687 33.9809C55.7257 32.8005 54.977 31.6352 53.7965 31.3782Z" fill="#00c5a7"/>
<path d="M53.7965 31.3782C52.6168 31.1213 51.4507 31.8699 51.1938 33.0503C51.0524 33.6997 50.8816 34.3502 50.6857 34.9842C50.329 36.1385 50.9756 37.3633 52.1299 37.72C52.345 37.7864 52.5624 37.818 52.7764 37.818C53.7104 37.818 54.5754 37.2149 54.8657 36.2756C55.0982 35.5233 55.301 34.7512 55.4687 33.9809C55.7257 32.8005 54.977 31.6352 53.7965 31.3782Z" fill="white" fill-opacity="0.2"/>
<path d="M39.609 48.6428C39.0282 48.967 38.4268 49.27 37.8218 49.5433C36.7207 50.0405 36.2312 51.3362 36.7285 52.4373C37.0938 53.2462 37.8899 53.7249 38.7233 53.7249C39.0243 53.7249 39.3303 53.6625 39.6224 53.5306C40.3402 53.2064 41.0531 52.8471 41.7418 52.4626C42.7967 51.8738 43.1744 50.5411 42.5853 49.4863C41.9965 48.4316 40.6639 48.0539 39.609 48.6428Z" fill="#00c5a7"/>
<path d="M39.609 48.6428C39.0282 48.967 38.4268 49.27 37.8218 49.5433C36.7207 50.0405 36.2312 51.3362 36.7285 52.4373C37.0938 53.2462 37.8899 53.7249 38.7233 53.7249C39.0243 53.7249 39.3303 53.6625 39.6224 53.5306C40.3402 53.2064 41.0531 52.8471 41.7418 52.4626C42.7967 51.8738 43.1744 50.5411 42.5853 49.4863C41.9965 48.4316 40.6639 48.0539 39.609 48.6428Z" fill="white" fill-opacity="0.2"/>
<path d="M25.8125 10.5V27.094L17.791 35.1153C16.9368 35.9696 16.9368 37.3547 17.791 38.2089C18.2182 38.6361 18.7779 38.8496 19.3379 38.8496C19.8977 38.8496 20.4576 38.636 20.8848 38.2089L29.5469 29.5468C29.957 29.1367 30.1875 28.5802 30.1875 28V10.5C30.1875 9.29187 29.2081 8.31253 28 8.31253C26.7918 8.31253 25.8125 9.29187 25.8125 10.5Z" fill="#00c5a7"/>
<path d="M25.8125 10.5V27.094L17.791 35.1153C16.9368 35.9696 16.9368 37.3547 17.791 38.2089C18.2182 38.6361 18.7779 38.8496 19.3379 38.8496C19.8977 38.8496 20.4576 38.636 20.8848 38.2089L29.5469 29.5468C29.957 29.1367 30.1875 28.5802 30.1875 28V10.5C30.1875 9.29187 29.2081 8.31253 28 8.31253C26.7918 8.31253 25.8125 9.29187 25.8125 10.5Z" fill="white" fill-opacity="0.2"/>
<path d="M53.8125 4.70312C52.6043 4.70312 51.625 5.68247 51.625 6.89062V12.9649C46.5334 4.97962 37.6415 0 28 0C20.5209 0 13.4895 2.91255 8.20094 8.20094C2.91255 13.4895 0 20.5209 0 28C0 35.4791 2.91255 42.5105 8.20094 47.7991C13.4895 53.0875 20.5209 56 28 56C28.0185 56 28.0363 55.9977 28.0547 55.9973C28.0731 55.9977 28.0909 56 28.1094 56C28.8978 56 29.6939 55.9667 30.4759 55.9013C31.6798 55.8005 32.5741 54.7428 32.4733 53.539C32.3724 52.3351 31.3161 51.4404 30.1108 51.5417C29.4498 51.5969 28.7765 51.625 28.1094 51.625C28.0909 51.625 28.0731 51.6273 28.0547 51.6277C28.0363 51.6273 28.0185 51.625 28 51.625C14.9731 51.625 4.375 41.0269 4.375 28C4.375 14.9731 14.9731 4.375 28 4.375C36.3954 4.375 44.1172 8.84986 48.3368 15.9688H42.3219C41.1137 15.9688 40.1344 16.9481 40.1344 18.1562C40.1344 19.3644 41.1137 20.3438 42.3219 20.3438H49C50.3322 20.3438 51.5785 19.9694 52.6397 19.3208C52.7079 19.2818 52.7735 19.2399 52.8361 19.1948C54.7399 17.9423 56 15.788 56 13.3438V6.89062C56 5.68247 55.0207 4.70312 53.8125 4.70312Z" fill="#00c5a7"/>
<path d="M53.8125 4.70312C52.6043 4.70312 51.625 5.68247 51.625 6.89062V12.9649C46.5334 4.97962 37.6415 0 28 0C20.5209 0 13.4895 2.91255 8.20094 8.20094C2.91255 13.4895 0 20.5209 0 28C0 35.4791 2.91255 42.5105 8.20094 47.7991C13.4895 53.0875 20.5209 56 28 56C28.0185 56 28.0363 55.9977 28.0547 55.9973C28.0731 55.9977 28.0909 56 28.1094 56C28.8978 56 29.6939 55.9667 30.4759 55.9013C31.6798 55.8005 32.5741 54.7428 32.4733 53.539C32.3724 52.3351 31.3161 51.4404 30.1108 51.5417C29.4498 51.5969 28.7765 51.625 28.1094 51.625C28.0909 51.625 28.0731 51.6273 28.0547 51.6277C28.0363 51.6273 28.0185 51.625 28 51.625C14.9731 51.625 4.375 41.0269 4.375 28C4.375 14.9731 14.9731 4.375 28 4.375C36.3954 4.375 44.1172 8.84986 48.3368 15.9688H42.3219C41.1137 15.9688 40.1344 16.9481 40.1344 18.1562C40.1344 19.3644 41.1137 20.3438 42.3219 20.3438H49C50.3322 20.3438 51.5785 19.9694 52.6397 19.3208C52.7079 19.2818 52.7735 19.2399 52.8361 19.1948C54.7399 17.9423 56 15.788 56 13.3438V6.89062C56 5.68247 55.0207 4.70312 53.8125 4.70312Z" fill="white" fill-opacity="0.2"/>
</svg>
